<svg width="71" height="43" viewBox="0 0 71 43" fill="none" xmlns="http://www.w3.org/2000/svg">
<path d="M70.13 16.654C69.7281 15.8053 68.9241 15.2247 67.9862 15.18C63.9664 14.9567 59.8573 14.7334 55.8376 14.5994C55.6589 14.5994 55.4803 14.5994 55.3016 14.5994C51.9518 14.5994 48.8254 15.716 46.3689 17.7259C46.5475 15.6267 45.9669 13.5275 44.627 11.6963C43.4657 10.1777 42.3491 8.65912 41.1878 7.14054C40.8752 6.73857 40.4732 6.42592 39.9819 6.29193C39.9372 5.80063 39.7586 5.30933 39.4459 4.90735L37.2574 2.0042C36.7661 1.33424 36.0515 0.976929 35.2922 0.976929C34.5329 0.976929 33.7736 1.33424 33.327 1.95953L32.7017 2.76348C30.4685 5.66664 28.1906 8.70378 25.9575 11.6963C24.5729 13.5721 23.9922 15.7607 24.2156 17.9045C21.7144 15.7607 18.4539 14.5994 15.0595 14.5994C14.8808 14.5994 14.7022 14.5994 14.5235 14.5994C10.5038 14.7334 6.39467 14.9567 2.37492 15.18C1.43698 15.2247 0.633032 15.8053 0.231057 16.654C-0.170918 17.5026 -0.036926 18.5298 0.543704 19.2891C2.24093 21.567 4.02749 23.8895 5.94803 26.346C6.57333 27.15 7.19862 27.9539 7.86858 28.7579C9.65514 30.9911 11.5757 33.4029 13.7642 36.0827C14.0322 36.4401 14.4342 36.708 14.8361 36.842C14.9255 37.2887 15.1041 37.6906 15.3721 38.048C16.1761 39.0752 17.0247 40.0578 17.8286 41.0851C18.3199 41.6657 18.9899 42.023 19.7492 42.023C19.7938 42.023 19.8832 42.023 19.9278 42.023C24.0816 41.7104 28.28 41.5317 32.4337 41.4871C33.327 41.4871 34.2649 41.4871 35.1582 41.4871C36.0515 41.4871 36.9894 41.4871 37.8827 41.4871C42.0365 41.5317 46.2349 41.7104 50.3886 42.023C50.4333 42.023 50.5226 42.023 50.5673 42.023C51.3265 42.023 51.9965 41.7104 52.4878 41.0851C53.2918 40.0578 54.1404 39.0752 54.9443 38.048C55.2123 37.6906 55.4356 37.2887 55.4803 36.842C55.8823 36.708 56.2842 36.4401 56.5522 36.0827C58.7407 33.4029 60.6613 30.9911 62.4478 28.7579C63.0731 27.9539 63.6984 27.15 64.3237 26.346C64.9044 25.5867 65.0383 24.6041 64.6364 23.7555C64.6364 23.7555 64.6364 23.7555 64.6364 23.7108C64.7704 23.7108 64.8597 23.7108 64.9937 23.7555C65.0383 23.7555 65.1277 23.7555 65.1723 23.7555C65.9316 23.7555 66.6462 23.3982 67.1376 22.7729C68.0308 21.6116 68.9241 20.4504 69.7727 19.3338C70.398 18.5298 70.4873 17.5472 70.13 16.654Z" fill="#360608"/>
<path d="M55.0337 33.9389C54.587 33.8942 54.185 33.8496 53.7384 33.8496C52.6665 33.7602 51.5945 33.7156 50.5226 33.6263C47.3961 33.4476 44.1803 33.3136 41.0539 33.2243C40.1606 33.2243 39.312 33.1796 38.4187 33.1796C37.7934 33.1796 37.1681 33.1796 36.5428 33.1796C36.3642 33.1796 36.1855 33.0456 36.0962 32.867C36.0068 32.6883 36.0515 32.465 36.1408 32.331C38.2847 29.6512 40.4732 26.9267 42.6171 24.3362C43.7337 22.9516 44.8503 21.567 45.9669 20.1824C48.2894 17.2793 51.8625 15.6267 55.7483 15.6267C55.9269 15.6267 56.0609 15.6267 56.2396 15.6267C60.3487 15.7607 64.5024 15.984 68.6115 16.2073C68.7901 16.2073 68.9688 16.3413 69.0581 16.52C69.1475 16.6986 69.1028 16.8773 69.0135 17.056C68.1202 18.1726 67.2269 19.3338 66.3336 20.4951C66.2443 20.6291 66.1103 20.6737 65.9317 20.6737H65.887C62.7159 20.4504 59.4554 20.2718 56.2396 20.1378C56.1056 20.1378 55.9716 20.1378 55.8823 20.1378C53.5151 20.1378 51.1926 21.2097 49.7633 22.9516C48.2001 24.8721 46.6369 26.7927 45.0736 28.7132L44.895 28.9365C45.0736 28.9365 45.2523 28.9365 45.4309 28.9365C47.6195 29.0259 49.808 29.1152 51.9965 29.2492C52.3538 29.2492 52.7558 29.2939 53.1131 29.3385C53.9617 28.3113 54.8103 27.284 55.6143 26.2567C54.721 26.212 53.7831 26.1674 52.8898 26.0781C52.4878 26.5694 52.0858 27.1053 51.6839 27.5966C51.5945 27.7306 51.4606 27.7753 51.2819 27.7753C51.2819 27.7753 51.2819 27.7753 51.2372 27.7753C49.9866 27.7306 48.7361 27.6413 47.5301 27.5966C47.3515 27.5966 47.1728 27.4626 47.0835 27.284C46.9942 27.1053 47.0388 26.882 47.1282 26.748L48.3787 25.1848C48.3787 25.1401 48.4234 25.0955 48.4681 25.0508L49.3167 23.9789C50.2993 22.7729 51.9072 22.5943 53.1578 22.5943C53.6937 22.5943 54.2297 22.6389 54.721 22.6389H54.989C56.1503 22.6836 57.3562 22.7729 58.5174 22.8623C60.036 22.9516 61.5546 23.0409 63.0285 23.1749C63.2072 23.1749 63.3858 23.3089 63.4751 23.4876C63.5645 23.6662 63.5198 23.8449 63.3858 24.0235C62.7605 24.8275 62.0906 25.6314 61.4653 26.4354C59.6787 28.6686 57.7135 31.0804 55.4803 33.7602C55.3463 33.8942 55.2123 33.9389 55.0337 33.9389Z" fill="#EE7C19"/>
<path d="M15.2828 33.9389C15.1488 33.9389 14.9702 33.8496 14.8808 33.7602C12.6476 31.0804 10.6824 28.6685 8.89587 26.4354C8.27057 25.6314 7.60061 24.8275 6.97532 24.0235C5.01011 21.567 3.17889 19.2891 1.437 17.0113C1.30301 16.8773 1.30301 16.654 1.39233 16.4753C1.48166 16.2967 1.61565 16.2073 1.83897 16.1627C5.94805 15.9393 10.1018 15.716 14.2109 15.582C14.3895 15.582 14.5235 15.582 14.7022 15.582C18.5433 15.582 22.1164 17.2346 24.4836 20.1377C25.1535 20.9417 25.7788 21.7456 26.4488 22.5943L28.28 24.8721C28.414 25.0061 28.414 25.2294 28.3247 25.4081C28.2353 25.5867 28.0567 25.7207 27.878 25.7207C26.4934 25.7654 25.1089 25.8101 23.6796 25.8547C27.0741 27.4626 29.8432 28.8025 32.4337 30.0978C32.5231 30.1425 32.5677 30.1871 32.6124 30.2318C33.1484 30.9464 33.729 31.661 34.265 32.3757C34.3989 32.5096 34.3989 32.733 34.3096 32.9116C34.2203 33.0903 34.0416 33.1796 33.863 33.1796C32.3891 33.1796 30.8258 33.2243 29.3519 33.2243C29.2626 33.2243 29.1733 33.1796 29.0839 33.1349C24.9749 30.7678 20.7765 28.4452 16.7567 26.1674L16.4887 26.0334C15.7741 25.6314 15.0595 24.4255 15.5061 23.5322C15.7741 23.0409 16.3994 22.5943 16.9354 22.5943C18.052 22.5496 19.1686 22.5049 20.2852 22.4603C18.8559 20.9864 16.7567 20.0931 14.5682 20.0931C14.4342 20.0931 14.3002 20.0931 14.2109 20.0931C12.8263 20.1377 11.4417 20.2271 10.0571 20.3164C10.8164 21.2543 11.531 22.1476 12.2903 23.0856C12.9156 23.8895 13.5856 24.6935 14.2109 25.4527C15.9528 27.5966 17.784 29.8298 20.1958 32.7776C20.3298 32.9116 20.3298 33.1349 20.2852 33.3136C20.1958 33.4923 20.0618 33.6262 19.8385 33.6262C18.3199 33.7156 16.8014 33.8049 15.2828 33.9389C15.3275 33.9389 15.2828 33.9389 15.2828 33.9389Z" fill="#EE7C19"/>
<path d="M50.8801 38.9413C46.637 38.6286 42.3046 38.45 38.0169 38.3606C37.0789 38.3606 36.141 38.3606 35.203 38.3606C34.2651 38.3606 33.3272 38.3606 32.3892 38.3606C28.1015 38.4053 23.7691 38.6286 19.526 38.9413H19.4813C19.3474 38.9413 19.1687 38.8966 19.0794 38.7626C18.2308 37.7353 17.3821 36.7527 16.5782 35.7255C16.4442 35.5915 16.4442 35.3682 16.4889 35.1895C16.5782 35.0108 16.7122 34.8769 16.9355 34.8769C22.8758 34.4302 28.9501 34.1622 34.9351 34.1622H35.5603C41.5453 34.1622 47.5749 34.4302 53.5599 34.8769C53.7385 34.8769 53.9172 35.0108 54.0065 35.1895C54.0959 35.3682 54.0512 35.5468 53.9172 35.7255C53.0686 36.7527 52.22 37.7353 51.416 38.7626C51.1927 38.8966 51.0587 38.9413 50.8801 38.9413Z" fill="#EE7C19"/>
<path d="M35.2923 29.7851C35.1136 29.7851 34.9796 29.6958 34.8903 29.6065C34.131 28.6685 33.4164 27.6859 32.6571 26.748C32.5231 26.5693 32.5231 26.3013 32.6571 26.1227C34.0417 24.3361 35.3816 22.5496 36.7662 20.8077C37.6595 19.6464 38.5528 18.5298 39.446 17.3686C40.116 16.5199 40.116 15.4033 39.446 14.5101L38.8207 13.6615C36.9895 16.0286 35.203 18.3512 33.3717 20.7183C33.3717 20.7183 33.3717 20.7183 33.3717 20.763C32.6125 21.7456 31.8978 22.7282 31.1385 23.6662C31.0492 23.8002 30.9152 23.8448 30.7366 23.8895C30.5579 23.8895 30.4239 23.8002 30.3346 23.7108L27.4314 20.0037C25.5556 17.6365 25.5556 14.3761 27.4314 11.9642C29.7093 8.97174 32.0765 5.9346 34.3097 3.03145L34.8903 2.27216C34.9796 2.13817 35.1136 2.09351 35.2923 2.09351C35.4709 2.09351 35.6049 2.18283 35.6943 2.27216L37.9275 5.17531C38.0615 5.35397 38.0615 5.62195 37.9275 5.80061L35.6943 8.70376C35.6943 8.74842 35.6496 8.74842 35.6496 8.74842C34.1757 10.669 32.6571 12.6342 31.1832 14.5547C30.5133 15.4033 30.5133 16.5646 31.1832 17.4132V17.4579C32.9251 15.18 34.6223 12.9468 36.6322 10.3563L38.8654 7.45317C38.9547 7.31918 39.1334 7.27452 39.2674 7.27452C39.446 7.27452 39.58 7.36384 39.6694 7.45317C40.8306 8.97174 41.9919 10.4903 43.1978 12.0089C45.0737 14.4654 45.0737 17.6812 43.1978 20.0484L41.9472 21.6563C39.848 24.2021 37.7488 26.882 35.6943 29.5618C35.6049 29.6958 35.4263 29.7851 35.2923 29.7851Z" fill="#EE7C19"/>
<path d="M56.195 19.0657C59.4108 19.1997 62.6266 19.3783 65.8424 19.6017C66.7356 18.4851 67.6289 17.3238 68.5222 16.1625C64.4131 15.9392 60.304 15.7159 56.195 15.5819C52.3092 15.4479 48.6914 17.1005 46.3689 19.959C43.1084 24.0234 39.8033 28.0431 36.5428 32.1075C37.1681 32.1075 37.7934 32.1075 38.4187 32.1075C39.312 32.1075 40.1606 32.1522 41.0539 32.1522C44.225 32.2415 47.3962 32.3755 50.5673 32.5542C51.6392 32.5988 52.7112 32.6882 53.7831 32.7775C54.2297 32.8222 54.6317 32.8222 55.0784 32.8668C57.0882 30.455 59.0534 27.9985 61.0633 25.542C61.6886 24.738 62.3586 23.9341 62.9839 23.1301C61.4653 22.9961 59.9914 22.9068 58.4728 22.8175C57.3115 22.7281 56.1056 22.6835 54.9444 22.5941C53.0238 22.5048 50.8353 22.2815 49.674 23.7107C49.406 24.068 49.0934 24.4254 48.8254 24.7827H48.8701C48.4234 25.3633 47.9321 25.9439 47.4855 26.5246C48.7361 26.5692 49.942 26.6139 51.1926 26.7032C51.6392 26.1226 52.1305 25.542 52.5772 24.9613C53.9171 25.0507 55.257 25.0953 56.5523 25.1846C55.4357 26.5246 54.3637 27.9091 53.2471 29.2491C52.8005 29.2044 52.3092 29.2044 51.8626 29.1597C49.674 29.0257 47.4855 28.9364 45.297 28.8471C44.761 28.8471 44.2697 28.8024 43.7337 28.8024C45.5649 26.5246 47.3962 24.2914 49.2721 22.0135C50.88 20.093 53.4705 18.9764 56.195 19.0657Z" fill="#F5E074"/>
<path d="M13.8089 25.2739C13.1836 24.4699 12.5137 23.666 11.8884 22.9067C10.9504 21.7454 10.0125 20.5395 9.0299 19.3782C10.7271 19.2889 12.469 19.1996 14.1662 19.1102C16.8907 18.9763 19.4813 20.1375 21.0892 22.1027C21.1785 22.1921 21.2678 22.326 21.3571 22.4154C21.1338 22.4154 20.9105 22.4154 20.6872 22.46C19.4366 22.5047 18.2307 22.5494 16.9801 22.6387C16.6228 22.6387 16.1315 22.996 15.9975 23.3087C15.6848 23.8893 16.2208 24.8272 16.7568 25.1399C20.9552 27.4624 25.1536 29.8296 29.352 32.2414C30.8705 32.1968 32.3891 32.1968 33.863 32.1968C33.3271 31.4821 32.7464 30.7675 32.2105 30.0529C28.682 28.311 25.1536 26.6138 21.6251 24.9166C22.2057 24.8719 22.7864 24.8719 23.367 24.8719C24.8856 24.8272 26.4042 24.7826 27.8781 24.7379C27.2528 23.9786 26.6721 23.2193 26.0468 22.46C25.3769 21.6561 24.7516 20.8521 24.0816 20.0035C21.7591 17.145 18.1413 15.4925 14.2556 15.6265C10.1465 15.7605 6.03742 15.9838 1.92834 16.2071C3.75956 18.5743 5.59078 20.8968 7.46667 23.2193C8.09196 24.0233 8.76192 24.8272 9.38721 25.6312C11.3971 28.0877 13.3623 30.5442 15.3722 32.9561C16.8907 32.8221 18.3647 32.7327 19.8832 32.6434C17.8287 30.1869 15.8188 27.7304 13.8089 25.2739Z" fill="#F5E074"/>
<path d="M34.8902 34.2067C28.9052 34.2067 22.9203 34.43 16.9353 34.9213C17.7839 35.9486 18.6325 36.9312 19.4365 37.9584C23.7242 37.6458 28.0566 37.4671 32.3443 37.3778C34.2202 37.3331 36.0961 37.3331 38.0167 37.3778C42.3044 37.4225 46.6368 37.6011 50.9245 37.9584C51.7731 36.9312 52.6217 35.9486 53.4257 34.9213C47.4407 34.4746 41.4558 34.2067 35.4708 34.2067C35.2922 34.2067 35.0688 34.2067 34.8902 34.2067Z" fill="#F5E074"/>
<path d="M30.6918 22.8175C31.4511 21.8349 32.1657 20.8523 32.925 19.9144C34.8456 17.3685 36.8108 14.8227 38.776 12.2768C39.1333 12.7235 39.4906 13.1701 39.8479 13.6614C40.6519 14.6887 40.6519 16.1179 39.8479 17.1452C38.9546 18.3065 38.0614 19.4231 37.1681 20.5843C35.7835 22.3709 34.4436 24.1128 33.059 25.8993C33.8183 26.8373 34.5329 27.8199 35.2922 28.7578C37.7934 25.542 40.2946 22.3262 42.7957 19.1551C44.493 16.9665 44.493 13.9741 42.7957 11.6962C41.6345 10.1776 40.4732 8.65906 39.2673 7.14048C38.508 8.12309 37.7934 9.06103 37.0341 10.0436C35.0689 12.5895 33.1483 15.1353 31.1831 17.6812C31.0491 17.5025 30.9151 17.3238 30.7365 17.1452C29.9325 16.1179 29.9325 14.7333 30.7365 13.6614C32.2551 11.6962 33.7736 9.73099 35.2922 7.76578C36.0515 6.78317 36.7661 5.84523 37.5254 4.86263C36.7661 3.88002 36.0515 2.94208 35.2922 1.95947C32.791 5.21994 30.2898 8.43574 27.7887 11.6962C26.0914 13.9294 26.0914 16.9219 27.7887 19.1104C28.7713 20.361 29.7092 21.6116 30.6918 22.8175Z" fill="#F5E074"/>
<path d="M54.855 32.1523C54.4977 32.1076 54.185 32.1076 53.8277 32.063C52.7558 31.9736 51.6392 31.929 50.6119 31.8396C47.4408 31.661 44.2697 31.527 41.0985 31.4377C40.2053 31.4377 39.312 31.393 38.4634 31.393C38.1954 31.393 37.9274 31.393 37.6147 31.393C39.5353 28.9812 41.5005 26.5693 43.4211 24.2021C44.5376 22.8175 45.6542 21.433 46.7708 20.0484C48.9147 17.4132 52.1752 15.85 55.7483 15.85C55.8823 15.85 56.0609 15.85 56.1949 15.85C59.9914 15.984 63.7878 16.1626 67.5395 16.3859C66.9143 17.1899 66.2443 18.0385 65.619 18.8425C62.4925 18.6191 59.3661 18.4405 56.2396 18.3065C56.1056 18.3065 55.9716 18.3065 55.7929 18.3065C53.1131 18.3065 50.5226 19.5124 48.87 21.5223C47.3068 23.4428 45.7436 25.3634 44.1803 27.2839L43.3317 28.3112C43.1977 28.4452 43.1977 28.6685 43.2424 28.8472C43.3317 29.0258 43.5104 29.1598 43.689 29.1598C44.225 29.1598 44.7163 29.2045 45.2523 29.2045C47.4408 29.2938 49.6293 29.3831 51.8179 29.5171C52.2645 29.5618 52.7558 29.5618 53.2024 29.6065C53.2024 29.6065 53.2024 29.6065 53.2471 29.6065C53.3811 29.6065 53.5598 29.5171 53.6491 29.4278C54.7657 28.0879 55.8376 26.748 56.9542 25.3634C57.0882 25.2294 57.0882 25.0061 57.0435 24.8274C56.9542 24.6488 56.8202 24.5148 56.5969 24.5148C55.257 24.4254 53.9171 24.3361 52.6218 24.2915C52.6218 24.2915 52.6218 24.2915 52.5771 24.2915C52.4432 24.2915 52.2645 24.3808 52.1752 24.4701C51.7732 24.9614 51.3712 25.4974 50.9692 25.9887C50.1653 25.944 49.3167 25.8994 48.5127 25.8547L49.272 24.9167C49.3167 24.8721 49.3167 24.8274 49.3613 24.7828L50.1206 23.8448C50.7013 23.1302 51.6392 22.8175 53.2024 22.8175C53.6937 22.8175 54.2297 22.8622 54.721 22.8622H54.989C56.1503 22.9069 57.3562 22.9962 58.5174 23.0855C59.6787 23.1749 60.8846 23.2195 62.0459 23.3088C61.5993 23.8448 61.1526 24.4254 60.7506 24.9614C58.9194 27.1946 56.9989 29.5171 54.855 32.1523Z" fill="url(#paint0_linear)"/>
<path d="M15.5061 32.1523C13.3622 29.5618 11.4417 27.1946 9.69979 25.0507C9.07449 24.2468 8.40453 23.4428 7.77924 22.6389C6.03735 20.4504 4.42945 18.4405 2.86621 16.3859C6.61798 16.1626 10.4591 15.984 14.2108 15.85C14.3448 15.85 14.5235 15.85 14.6575 15.85C18.1413 15.85 21.4911 17.4132 23.6349 20.0484C24.3049 20.8523 26.8061 23.9341 26.8061 23.9341C25.6448 23.9788 24.4835 23.9788 23.3223 24.0235C22.7416 24.0235 22.161 24.0681 21.5804 24.0681C21.3571 24.0681 21.1337 24.2468 21.0891 24.4701C21.0444 24.6934 21.1784 24.9167 21.3571 25.0507C25.6001 27.0606 28.8159 28.6238 31.8531 30.1424C32.1657 30.5444 32.4784 30.9464 32.791 31.3483C31.6744 31.3483 30.5578 31.393 29.4412 31.393C25.3768 29.0258 21.2231 26.748 17.248 24.5148L16.98 24.4254C16.6227 24.2021 16.2654 23.5322 16.3994 23.3088C16.4887 23.1302 16.846 22.9069 16.98 22.9069C18.2306 22.8622 19.4812 22.7729 20.6871 22.7282L21.3571 22.6836C21.5357 22.6836 21.7144 22.5496 21.8037 22.3709C21.893 22.1922 21.8484 21.9689 21.7144 21.8349L21.491 21.5223C19.8832 19.5124 17.2926 18.3065 14.5681 18.3065C14.4342 18.3065 14.3002 18.3065 14.1215 18.3065C12.4243 18.3958 10.6824 18.4851 8.98516 18.5745C8.80651 18.5745 8.62785 18.7085 8.53852 18.8871C8.4492 19.0658 8.49386 19.2444 8.58319 19.4231C9.52113 20.629 10.4591 21.7903 11.4417 22.9515C12.067 23.7555 12.7369 24.5594 13.3622 25.3634C14.9255 27.2839 16.6227 29.3385 18.7219 31.929C17.6946 31.9736 16.578 32.063 15.5061 32.1523Z" fill="url(#paint1_linear)"/>
<path d="M50.7013 37.1547C46.5029 36.842 42.2598 36.6634 38.0167 36.6187C37.0788 36.6187 36.1408 36.6187 35.2029 36.6187C34.265 36.6187 33.327 36.6187 32.3891 36.6187C28.146 36.6634 23.8583 36.842 19.6599 37.1547C19.0792 36.4847 18.4986 35.7701 17.9626 35.1001C23.5903 34.6982 29.2626 34.4749 34.8903 34.4749H35.4709C41.0985 34.4749 46.7709 34.6982 52.3985 35.1001C51.8179 35.7701 51.2372 36.4847 50.7013 37.1547Z" fill="url(#paint2_linear)"/>
<path d="M33.6843 25.6314C34.9795 23.9342 36.2748 22.2816 37.5254 20.629C38.4186 19.4678 39.3119 18.3512 40.2052 17.1899C41.1431 15.984 41.1431 14.3314 40.2052 13.0809L39.1333 11.6963C39.0439 11.5623 38.8653 11.5176 38.7313 11.5176C38.5526 11.5176 38.4186 11.6069 38.3293 11.6963L38.0167 12.1429C36.1854 14.5548 34.3542 16.9219 32.4783 19.3338C32.4783 19.3338 32.4783 19.3338 32.4783 19.3785C31.853 20.1824 31.2724 20.9417 30.6471 21.7456L28.1459 18.5745C26.5827 16.5646 26.5827 13.8401 28.1459 11.7409C30.4238 8.74846 32.791 5.71131 35.0242 2.80816L35.2922 2.58484L36.9001 4.63938L34.9795 7.14056L34.9348 7.18522C33.4163 9.15043 31.8977 11.1156 30.3791 13.0809C29.4412 14.3314 29.4412 15.9393 30.3791 17.1899L30.8258 17.7259C30.9151 17.8599 31.0491 17.9046 31.2277 17.9046C31.4064 17.9046 31.5404 17.8152 31.6297 17.7259C33.5056 15.2694 35.3368 12.9022 37.4807 10.0884L39.3119 7.72119C40.3392 9.0611 41.3664 10.401 42.4384 11.7856C44.0016 13.8401 44.0016 16.5646 42.4384 18.6192L41.0985 20.1824C39.1779 22.6389 37.2127 25.1401 35.2922 27.6413C34.7562 26.9713 34.2202 26.3014 33.6843 25.6314Z" fill="url(#paint3_linear)"/>
<defs>
<linearGradient id="paint0_linear" x1="52.5525" y1="32.7067" x2="52.5525" y2="14.4512" gradientUnits="userSpaceOnUse">
<stop stopColor="#EE7C19"/>
<stop offset="0.49" stopColor="#EFD925"/>
<stop offset="0.5" stopColor="#EE7C19"/>
<stop offset="0.5864" stopColor="#EF991A"/>
<stop offset="0.6744" stopColor="#EFAE1A"/>
<stop offset="0.76" stopColor="#F0BB1B"/>
<stop offset="0.84" stopColor="#F0BF1B"/>
</linearGradient>
<linearGradient id="paint1_linear" x1="17.8113" y1="32.7067" x2="17.8113" y2="14.4512" gradientUnits="userSpaceOnUse">
<stop stopColor="#EE7C19"/>
<stop offset="0.49" stopColor="#EFD925"/>
<stop offset="0.5" stopColor="#EE7C19"/>
<stop offset="0.5864" stopColor="#EF991A"/>
<stop offset="0.6744" stopColor="#EFAE1A"/>
<stop offset="0.76" stopColor="#F0BB1B"/>
<stop offset="0.84" stopColor="#F0BF1B"/>
</linearGradient>
<linearGradient id="paint2_linear" x1="35.1788" y1="32.7067" x2="35.1788" y2="14.4512" gradientUnits="userSpaceOnUse">
<stop stopColor="#EE7C19"/>
<stop offset="0.49" stopColor="#EFD925"/>
<stop offset="0.5" stopColor="#EE7C19"/>
<stop offset="0.5864" stopColor="#EF991A"/>
<stop offset="0.6744" stopColor="#EFAE1A"/>
<stop offset="0.76" stopColor="#F0BB1B"/>
<stop offset="0.84" stopColor="#F0BF1B"/>
</linearGradient>
<linearGradient id="paint3_linear" x1="35.2809" y1="32.7067" x2="35.2809" y2="14.4512" gradientUnits="userSpaceOnUse">
<stop stopColor="#EE7C19"/>
<stop offset="0.49" stopColor="#EFD925"/>
<stop offset="0.5" stopColor="#EE7C19"/>
<stop offset="0.5864" stopColor="#EF991A"/>
<stop offset="0.6744" stopColor="#EFAE1A"/>
<stop offset="0.76" stopColor="#F0BB1B"/>
<stop offset="0.84" stopColor="#F0BF1B"/>
</linearGradient>
</defs>
</svg>
